<svg viewBox="0 0 52 56" xmlns="http://www.w3.org/2000/svg" fill="none">
  <path fill="#655EA8" d="m51.12 34.275-1.941-7.567a.63.63 0 0 0-.458-.451l-7.499-1.849a1 1 0 0 0-.173-.018.61.61 0 0 0-.5.173L27.892 37.218l-1.676-6.54a.63.63 0 0 0-.457-.452l-6.443-1.589 12.65-12.65a.65.65 0 0 0 .148-.26.6.6 0 0 0 .037-.4l-1.94-7.568a.63.63 0 0 0-.458-.452l-7.5-1.848a.63.63 0 0 0-.426.05h-.007c-.037.018-.068.043-.105.067-.03.025-.074.037-.099.068L.028 27.221s-.037.062-.062.093a.61.61 0 0 0-.123.575l2.096 7.314c.061.21.222.37.426.426l7.023 2.016 2.016 7.017c.062.21.223.37.427.427l7.048 2.021 2.021 7.048c.062.21.223.371.427.427l7.345 2.108a.6.6 0 0 0 .173.025c.012 0 .024-.006.043-.006h.012c.161 0 .322-.062.446-.186L50.94 34.931a.65.65 0 0 0 .148-.26.6.6 0 0 0 .037-.402zm-9.682 8.39-1.576-6.151 3.493-3.488 6.003 1.725-7.913 7.92zM29.191 54.913l-1.577-6.152 6.319-6.318 6.003 1.724zm4.872-14.369-1.509-5.255 5.422 1.336-3.913 3.913zm4.773-3.004 1.385 5.397-5.274-1.515 3.889-3.888zm.179-1.948-6.145-1.514 7.895-7.896 1.706 5.954zm-7.672.007 1.706 5.953-6.288 6.288-6.145-1.515zm16.717-8.23 1.576 6.152-5.96-1.712-1.706-5.942zM19.689 45.41l-1.577-6.151 2.275-2.276 6.003 1.725zm.828-10.325-1.509-5.255 5.422 1.336-3.913 3.913zm6.158 2.4L21.4 35.968l3.889-3.888 1.385 5.397zm-7.166-1.386-2.244 2.245-6.145-1.515 6.683-6.684zm-7.073-19.518 1.707 5.954L7.8 28.878l-6.146-1.515zm9.367-9.366 1.706 5.953-3.4 3.4-6.146-1.514zm.73 16.426-1.577-6.145 3.437-3.437 6.003 1.718zm-7.376-2.114-1.509-5.255 5.422 1.335-3.913 3.914zm4.773-3.005 1.384 5.398-5.267-1.515 3.889-3.889zm-4.897 4.897 6.003 1.719-10.8 10.8-1.577-6.145zM29.098 8.414l1.577 6.152-5.96-1.713-1.706-5.941zM1.345 28.581l5.422 1.336-3.913 3.913-1.509-5.255zm2.393 6.14 3.888-3.89 1.385 5.398-5.267-1.515zm8.773 9.267-1.707-5.941 6.09 1.502 1.577 6.152zm7.796 3.555 5.422 1.335-3.914 3.914-1.508-5.255zm2.392 6.14 3.89-3.89 1.384 5.398-5.274-1.515z"/>
</svg>
